<svg width="21" height="21" viewBox="0 0 21 21" fill="none" xmlns="http://www.w3.org/2000/svg">
<path d="M14.6242 11.166C15.3742 11.166 16.0342 10.756 16.3742 10.136L19.9542 3.64602C20.3242 2.98602 19.8442 2.16602 19.0842 2.16602H4.28422L3.34422 0.166016H0.0742188V2.16602H2.07422L5.67422 9.75602L4.32422 12.196C3.59422 13.536 4.55422 15.166 6.07422 15.166H18.0742V13.166H6.07422L7.17422 11.166H14.6242ZM5.23422 4.16602H17.3842L14.6242 9.16602H7.60422L5.23422 4.16602ZM6.07422 16.166C4.97422 16.166 4.08422 17.066 4.08422 18.166C4.08422 19.266 4.97422 20.166 6.07422 20.166C7.17422 20.166 8.07422 19.266 8.07422 18.166C8.07422 17.066 7.17422 16.166 6.07422 16.166ZM16.0742 16.166C14.9742 16.166 14.0842 17.066 14.0842 18.166C14.0842 19.266 14.9742 20.166 16.0742 20.166C17.1742 20.166 18.0742 19.266 18.0742 18.166C18.0742 17.066 17.1742 16.166 16.0742 16.166Z" fill="#2196F3"/>
</svg>
