<svg width="18" height="18" viewBox="0 0 18 18" fill="none" xmlns="http://www.w3.org/2000/svg">
<path d="M8.90609 0.50061C4.30609 0.50061 0.572754 4.23394 0.572754 8.83394C0.572754 13.4339 4.30609 17.1673 8.90609 17.1673C13.5061 17.1673 17.2394 13.4339 17.2394 8.83394C17.2394 4.23394 13.5061 0.50061 8.90609 0.50061ZM4.79775 14.0673C5.15609 13.3173 7.33942 12.5839 8.90609 12.5839C10.4728 12.5839 12.6644 13.3173 13.0144 14.0673C11.8811 14.9673 10.4561 15.5006 8.90609 15.5006C7.35609 15.5006 5.93109 14.9673 4.79775 14.0673ZM14.2061 12.8589C13.0144 11.4089 10.1228 10.9173 8.90609 10.9173C7.68942 10.9173 4.79775 11.4089 3.60609 12.8589C2.75609 11.7423 2.23942 10.3506 2.23942 8.83394C2.23942 5.15894 5.23109 2.16728 8.90609 2.16728C12.5811 2.16728 15.5728 5.15894 15.5728 8.83394C15.5728 10.3506 15.0561 11.7423 14.2061 12.8589V12.8589ZM8.90609 3.83394C7.28942 3.83394 5.98942 5.13394 5.98942 6.75061C5.98942 8.36728 7.28942 9.66728 8.90609 9.66728C10.5228 9.66728 11.8228 8.36728 11.8228 6.75061C11.8228 5.13394 10.5228 3.83394 8.90609 3.83394ZM8.90609 8.00061C8.21442 8.00061 7.65609 7.44228 7.65609 6.75061C7.65609 6.05894 8.21442 5.50061 8.90609 5.50061C9.59775 5.50061 10.1561 6.05894 10.1561 6.75061C10.1561 7.44228 9.59775 8.00061 8.90609 8.00061Z" fill="#673AB7"/>
</svg>
